<svg xmlns="http://www.w3.org/2000/svg" viewBox="0 0 400 300" width="406" height="306" class="illustration styles_illustrationTablet__1DWOa"><g id="_311_customer_service_outline" data-name="#311_customer_service_outline"><path d="M254.61,123.86a16.94,16.94,0,0,0-16.47,13l-5.34-1.35,4.89,5.88a16.94,16.94,0,1,0,16.92-17.53Z" fill="#fff"></path><path d="M254.61,158.75a17.86,17.86,0,0,1-17.9-17L232,136.15A1,1,0,0,1,232,135a1,1,0,0,1,1.1-.44l4.38,1.11a17.94,17.94,0,1,1,17.18,23.1Zm-19.08-21.52,2.93,3.52a1,1,0,0,1,.23.61,15.95,15.95,0,1,0,.43-4.27,1,1,0,0,1-1.22.74Z" fill="#dfeaef"></path><path d="M176.73,69.58S169,67,161.65,76c-7.07,8.71-7.81,21.26-7.41,32,.46,12.38,6.72,22.65,5.6,35.33a19.08,19.08,0,0,0,0,5.89,12.43,12.43,0,0,0,3.94,6.15c5.48,5.14,13,7.71,20.55,8.11s15-1.22,22.14-3.59c5.53-1.85,11.18-4.36,14.61-9.08,3.79-5.22,3.59-11.25,3.71-17.37.11-5.62,2.71-10.87,3.47-16.55,1.7-12.78.16-26.12-6.29-37.45C212.58,63,187.56,55.51,176.73,69.58Z" fill="#725858"></path><path d="M186.58,164.57q-1.19,0-2.34-.06c-8.38-.45-15.9-3.43-21.19-8.39a13.14,13.14,0,0,1-4.23-6.65,17.11,17.11,0,0,1,0-5.39l.07-.81c.61-6.9-1-13-2.69-19.41-1.33-5-2.7-10.21-2.91-15.79-.39-10.35.13-23.42,7.63-32.66,6.49-8,13.3-7.4,15.47-7,4.27-5.18,10.77-7.73,18.4-7.2A36.48,36.48,0,0,1,222.8,79c6.09,10.7,8.3,23.86,6.41,38.09a51,51,0,0,1-1.69,7.3,36.38,36.38,0,0,0-1.77,9.13l0,1.31c-.09,5.67-.18,11.53-3.88,16.63s-10,7.75-15.11,9.43A64,64,0,0,1,186.58,164.57ZM174,70.23c-2.66,0-7.15,1-11.58,6.44-7.08,8.72-7.56,21.32-7.19,31.32.2,5.37,1.54,10.45,2.84,15.36,1.67,6.32,3.4,12.85,2.75,20.1l-.07.82a15.24,15.24,0,0,0,0,4.77,11.4,11.4,0,0,0,3.65,5.63c5,4.63,12,7.42,19.92,7.84,6.45.35,13.56-.81,21.77-3.54,5.08-1.7,10.74-4.05,14.12-8.71s3.41-9.89,3.5-15.49l0-1.32a38.37,38.37,0,0,1,1.85-9.63,52.34,52.34,0,0,0,1.63-7c1.28-9.61,1.25-23.8-6.17-36.83A34.42,34.42,0,0,0,194.6,63.25c-7.19-.5-13.26,2-17.08,6.94a1,1,0,0,1-1.11.34A8.55,8.55,0,0,0,174,70.23Z" fill="#093f68"></path><path d="M172.42,152.66h24.74a17.46,17.46,0,0,1,17.46,17.46v44.55a0,0,0,0,1,0,0H155a0,0,0,0,1,0,0V170.11A17.46,17.46,0,0,1,172.42,152.66Z" fill="#68e1fd"></path><path d="M214.61,215.66H155a1,1,0,0,1-1-1V170.11a18.47,18.47,0,0,1,18.46-18.45h24.74a18.47,18.47,0,0,1,18.45,18.45v44.55A1,1,0,0,1,214.61,215.66Zm-58.65-2h57.65V170.11a16.47,16.47,0,0,0-16.45-16.45H172.42A16.47,16.47,0,0,0,156,170.11Z" fill="#093f68"></path><rect x="122.5" y="213.47" width="155.01" height="26.7" fill="#fff"></rect><path d="M277.5,241.17h-155a1,1,0,0,1-1-1v-26.7a1,1,0,0,1,1-1h155a1,1,0,0,1,1,1v26.7A1,1,0,0,1,277.5,241.17Zm-154-2h153v-24.7h-153Z" fill="#093f68"></path><polygon points="195.95 153.42 190.99 190.76 185.77 153.42 195.95 153.42" fill="#fff"></polygon><path d="M191,191.76a1,1,0,0,1-1-.87l-5.22-37.33a1,1,0,0,1,.23-.79,1,1,0,0,1,.76-.35H196a1,1,0,0,1,.75.35,1,1,0,0,1,.24.79l-5,37.33a1,1,0,0,1-1,.87Zm-4.07-37.34,4,28.93,3.85-28.93Z" fill="#093f68"></path><path d="M191,191.76a1,1,0,0,1-.6-.2L176.13,181a1,1,0,0,1-.4-.7,1,1,0,0,1,.25-.77l5.93-6.55-6.55-6.22a1,1,0,0,1-.1-1.33L185,152.81a1,1,0,0,1,1.58,1.22l-9.17,11.9L184,172.2a1,1,0,0,1,.05,1.39l-5.84,6.46,13.37,9.9a1,1,0,0,1,.21,1.4A1,1,0,0,1,191,191.76Z" fill="#093f68"></path><path d="M191.59,191.76A1,1,0,0,1,191,190l13.38-9.9-5.85-6.46a1,1,0,0,1,0-1.39l6.61-6.27L196,154a1,1,0,0,1,1.59-1.22l9.71,12.62a1,1,0,0,1-.1,1.33L200.66,173l5.93,6.55a1,1,0,0,1,.25.77,1,1,0,0,1-.4.7l-14.26,10.56A1,1,0,0,1,191.59,191.76Z" fill="#093f68"></path><path d="M186.39,147.57h10.18a0,0,0,0,1,0,0v5.86a4.32,4.32,0,0,1-4.32,4.32h-1.54a4.32,4.32,0,0,1-4.32-4.32v-5.86A0,0,0,0,1,186.39,147.57Z" fill="#ffc9b0"></path><path d="M192.24,158.75h-1.53a5.33,5.33,0,0,1-5.32-5.33v-5.85a1,1,0,0,1,1-1h10.17a1,1,0,0,1,1,1v5.85A5.33,5.33,0,0,1,192.24,158.75Zm-4.85-10.18v4.85a3.33,3.33,0,0,0,3.32,3.33h1.53a3.33,3.33,0,0,0,3.32-3.33v-4.85Z" fill="#093f68"></path><path d="M209.61,95.85,200,83.45s-2.17,7.63-3.5,12.36l-15.21,0-3.58-11.08-4.22,11.06-11.8,0v23.37a29.82,29.82,0,0,0,29.83,29.82h0a29.82,29.82,0,0,0,29.82-29.82V95.89Z" fill="#ffc9b0"></path><path d="M191.48,149.9a30.86,30.86,0,0,1-30.83-30.82V95.71a1,1,0,0,1,1-1l11.11,0,4-10.4a1,1,0,0,1,1-.65,1,1,0,0,1,.93.7L182,94.77l13.72,0C197,90.07,199,83.17,199,83.17a1,1,0,0,1,1.75-.34l9.35,12,11.2,0a1,1,0,0,1,1,1v23.19A30.86,30.86,0,0,1,191.48,149.9ZM162.65,96.71v22.37a28.83,28.83,0,0,0,57.65,0V96.88l-10.69,0a1,1,0,0,1-.79-.38l-8.43-10.85-3,10.46a1,1,0,0,1-1,.73h0l-15.21,0a1,1,0,0,1-.95-.69l-2.71-8.38-3.21,8.4a1,1,0,0,1-.94.65Z" fill="#093f68"></path><path d="M191.33,125a18.19,18.19,0,0,1-2.71-.22,1,1,0,0,1-.81-1.16,1,1,0,0,1,1.16-.81,13.27,13.27,0,0,0,3.94.06c.07-.89-.95-3.73-2.32-6.35a1,1,0,1,1,1.77-.92c1,1.87,3.16,6.42,2.34,8.24a1.6,1.6,0,0,1-1.09.92A9.65,9.65,0,0,1,191.33,125Z" fill="#093f68"></path><path d="M183.31,107.28h0l-13.17,0a2,2,0,0,1,0-4h0l13.16,0a2,2,0,1,1,0,4Z" fill="#093f68"></path><path d="M202.08,107.61a2,2,0,0,1-.1-4l13.15-.68a2,2,0,0,1,.21,4l-13.15.67Z" fill="#093f68"></path><path d="M193.36,136.53c-6.28,0-13-3.43-13.39-3.64a1,1,0,0,1-.43-1.35,1,1,0,0,1,1.35-.42c.13.06,12.78,6.53,18.41,1.52a1,1,0,0,1,1.33,1.49A10.6,10.6,0,0,1,193.36,136.53Z" fill="#093f68"></path><path d="M210.75,118.35a1,1,0,0,1-1-1,3.34,3.34,0,0,0-6.67,0,1,1,0,0,1-2,0,5.34,5.34,0,0,1,10.67,0A1,1,0,0,1,210.75,118.35Z" fill="#093f68"></path><path d="M181.06,118.35a1,1,0,0,1-1-1,3.33,3.33,0,0,0-6.66,0,1,1,0,0,1-2,0,5.33,5.33,0,0,1,10.66,0A1,1,0,0,1,181.06,118.35Z" fill="#093f68"></path><path d="M210.75,203.32a1,1,0,0,1-1-1V171.53a1,1,0,1,1,2,0v30.79A1,1,0,0,1,210.75,203.32Z" fill="#093f68"></path><path d="M231.91,108.83a1,1,0,0,1-1-1V91.43c0-20.28-17.7-36.78-39.45-36.78S152,71.15,152,91.43v16.4a1,1,0,0,1-2,0V91.43c0-21.38,18.59-38.78,41.45-38.78s41.45,17.4,41.45,38.78v16.4A1,1,0,0,1,231.91,108.83Z" fill="#093f68"></path><rect x="221.3" y="102.98" width="10.61" height="23.52" rx="4.86" fill="#68e1fd"></rect><path d="M227.05,127.5h-.89a5.87,5.87,0,0,1-5.86-5.86V107.83a5.86,5.86,0,0,1,5.86-5.85h.89a5.86,5.86,0,0,1,5.86,5.85v13.81A5.87,5.87,0,0,1,227.05,127.5ZM226.16,104a3.86,3.86,0,0,0-3.86,3.85v13.81a3.86,3.86,0,0,0,3.86,3.86h.89a3.86,3.86,0,0,0,3.86-3.86V107.83a3.86,3.86,0,0,0-3.86-3.85Z" fill="#093f68"></path><rect x="151.04" y="102.98" width="10.61" height="23.52" rx="4.86" fill="#68e1fd"></rect><path d="M156.79,127.5h-.89a5.87,5.87,0,0,1-5.86-5.86V107.83A5.86,5.86,0,0,1,155.9,102h.89a5.86,5.86,0,0,1,5.86,5.85v13.81A5.87,5.87,0,0,1,156.79,127.5ZM155.9,104a3.86,3.86,0,0,0-3.86,3.85v13.81a3.86,3.86,0,0,0,3.86,3.86h.89a3.86,3.86,0,0,0,3.86-3.86V107.83a3.86,3.86,0,0,0-3.86-3.85Z" fill="#093f68"></path><path d="M179.06,142.39h-.15l-23.16-3.55a1,1,0,0,1-.85-1V126.5a1,1,0,1,1,2,0V137l22.31,3.42a1,1,0,0,1,.84,1.14A1,1,0,0,1,179.06,142.39Z" fill="#093f68"></path><circle cx="180.31" cy="141.04" r="3.59" fill="#68e1fd"></circle><path d="M180.31,145.62A4.59,4.59,0,1,1,184.9,141,4.59,4.59,0,0,1,180.31,145.62Zm0-7.17A2.59,2.59,0,1,0,182.9,141,2.59,2.59,0,0,0,180.31,138.45Z" fill="#093f68"></path><path d="M196,207.52c-2.92,0-19.12,2-24.54.6l.14-16.7L157.51,193c0,.19-.72,5.59-.89,10.39-.26,8,1.39,17.73,6.16,20,3.3,1.57,29.5-6.2,29.5-6.2s14.78,6.22,15.21,0S198.91,207.52,196,207.52Z" fill="#ffc9b0"></path><path d="M164.16,224.5a4.65,4.65,0,0,1-1.81-.26c-5.4-2.56-7-12.88-6.73-20.93.16-4.5.77-9.5.89-10.46a1,1,0,0,1,.89-.9l14.09-1.52a1,1,0,0,1,.78.25,1,1,0,0,1,.32.75l-.14,15.88c4.24.75,13.28,0,18.81-.46,2.27-.19,3.92-.33,4.73-.33a16.84,16.84,0,0,1,10.24,4.82,7.61,7.61,0,0,1,2.26,5.86,3.56,3.56,0,0,1-1.7,2.91c-3.69,2.27-12.51-1.09-14.57-1.92C187.68,219.53,170.4,224.5,164.16,224.5Zm-5.75-30.64c-.22,1.8-.66,5.84-.79,9.51-.26,7.78,1.38,17.06,5.59,19.06,1.84.88,16.08-2.5,28.78-6.26a1,1,0,0,1,.68,0c3.82,1.61,10.75,3.63,13.07,2.2a1.58,1.58,0,0,0,.76-1.35,5.71,5.71,0,0,0-1.74-4.36,15,15,0,0,0-8.77-4.18c-.73,0-2.42.15-4.57.32-6.4.53-16.07,1.34-20.23.24a1,1,0,0,1-.74-1l.13-15.57Z" fill="#093f68"></path><polyline points="173.24 170.11 173.24 196.18 154.96 196.18 154.96 170.11" fill="#68e1fd"></polyline><path d="M173.24,197.18H155a1,1,0,0,1-1-1V170.11a1,1,0,0,1,2,0v25.07h16.28V170.11a1,1,0,0,1,2,0v26.07A1,1,0,0,1,173.24,197.18Z" fill="#093f68"></path><path d="M223.16,191.32c.81-.81,3.38-11.68,3.06-15.15s-.05-7.64,1.26-7.48,2.91,1,2.91,6.42c0,0,3.37-9.35,5.45-9s5.84,2.63,6,4.71c.08,1-1.18,6.43-4,12-1.35,7.39-2.17,15.53-2.17,15.53Z" fill="#ffc9b0"></path><path d="M235.68,199.38a1.09,1.09,0,0,1-.49-.13l-12.53-7.06a1,1,0,0,1-.25-1.54c.65-1,3.11-11.09,2.81-14.39-.1-1.08-.52-6.57,1.06-8.1a1.59,1.59,0,0,1,1.32-.46c1.68.2,2.78,1.28,3.34,3.31,1.5-3.35,3.31-6.19,5.07-5.9,2.22.37,6.62,2.84,6.83,5.62.1,1.33-1.35,7-4,12.44-1.31,7.23-2.12,15.23-2.13,15.31a1,1,0,0,1-.54.78A.93.93,0,0,1,235.68,199.38Zm-11.22-8.48,10.39,5.86c.31-2.71,1-8.63,2-14.09a1.14,1.14,0,0,1,.09-.26,39.28,39.28,0,0,0,3.89-11.52c-.11-1.39-3.22-3.48-5.17-3.81-.76.26-2.84,4.17-4.35,8.37a1,1,0,0,1-1.94-.34c0-4.57-1.15-5.25-1.81-5.39-.36.68-.66,3.21-.37,6.36C227.47,178.86,225.74,187.65,224.46,190.9Zm-2-.3,0,0Z" fill="#093f68"></path><polygon points="195.99 224.16 247.32 224.16 256.6 186.93 205.27 186.93 195.99 224.16" fill="#f56132"></polygon><path d="M247.32,225.15H196a1,1,0,0,1-1-1.24l9.28-37.23a1,1,0,0,1,1-.76H256.6a1,1,0,0,1,.79.39,1,1,0,0,1,.18.86l-9.28,37.23A1,1,0,0,1,247.32,225.15Zm-50-2h49.27l8.78-35.23H206.05Z" fill="#093f68"></path><polygon points="199.24 224.16 250.57 224.16 259.85 186.93 208.52 186.93 199.24 224.16" fill="#f56132"></polygon><path d="M250.57,225.15H199.24a1,1,0,0,1-1-1.24l9.28-37.23a1,1,0,0,1,1-.76h51.33a1,1,0,0,1,.79.39,1,1,0,0,1,.18.86l-9.28,37.23A1,1,0,0,1,250.57,225.15Zm-50-2h49.27l8.78-35.23H209.3Z" fill="#093f68"></path><path d="M173.24,224.15v2.43a3.48,3.48,0,0,0,3.48,3.48h70.15a3.48,3.48,0,0,0,3.49-3.48v-2.43Z" fill="#f56132"></path><path d="M246.87,231.06H176.72a4.49,4.49,0,0,1-4.48-4.48v-2.43a1,1,0,0,1,1-1h77.12a1,1,0,0,1,1,1v2.43A4.49,4.49,0,0,1,246.87,231.06Zm-72.63-5.91v1.43a2.48,2.48,0,0,0,2.48,2.48h70.15a2.49,2.49,0,0,0,2.49-2.48v-1.43Z" fill="#093f68"></path><path d="M173.24,224.15v2.43a3.48,3.48,0,0,0,3.48,3.48h18.6a3.92,3.92,0,0,0,3.92-3.92v-2Z" fill="#f56132"></path><path d="M195.32,231.06h-18.6a4.49,4.49,0,0,1-4.48-4.48v-2.43a1,1,0,0,1,1-1h26a1,1,0,0,1,1,1v2A4.93,4.93,0,0,1,195.32,231.06Zm-21.08-5.91v1.43a2.48,2.48,0,0,0,2.48,2.48h18.6a2.92,2.92,0,0,0,2.92-2.92v-1Z" fill="#093f68"></path><path d="M235.12,180.75a1,1,0,0,1-1-1c-.11-3.37-3.41-3.65-3.78-3.67a1,1,0,0,1,.09-2,5.77,5.77,0,0,1,5.69,5.61,1,1,0,0,1-1,1Z" fill="#093f68"></path><path d="M260,151.89h0a10.5,10.5,0,0,1-4.28-1.09c-5.71-2.88-9.37-6.78-11.2-11.92a7.91,7.91,0,0,1-.57-4.42,6.38,6.38,0,0,1,3.9-4.48,1.88,1.88,0,0,1,2.68.88l2.19,3.58a1.87,1.87,0,0,1-.34,2.66c-.53.51-1.08,1-1.62,1.41l-.08.07a.44.44,0,0,0-.13.14l.29.45a9.6,9.6,0,0,0,1,1.6A24.49,24.49,0,0,0,257,145.1l.11.07.11-.12c.18-.21.36-.43.53-.65s.47-.59.72-.88a1.93,1.93,0,0,1,2.76-.44l1.31.78c.79.47,1.58.93,2.38,1.38a1.8,1.8,0,0,1,.89,2.23,6,6,0,0,1-4.64,4.26,7.05,7.05,0,0,1-.83.13l-.2,0Zm-11.3-20.12,0,0a4.47,4.47,0,0,0-2.8,3.1,6.13,6.13,0,0,0,.51,3.32c1.64,4.63,5,8.17,10.21,10.8a8.43,8.43,0,0,0,3.39.88l.16,0a4.44,4.44,0,0,0,.57-.09,4,4,0,0,0,3.17-2.83c-.82-.46-1.58-.92-2.35-1.37l-1.3-.77-.14-.08-.11.12c-.23.25-.44.52-.65.79s-.38.48-.58.71a1.85,1.85,0,0,1-2.82.43,26,26,0,0,1-5.58-4.69,11.13,11.13,0,0,1-1.28-1.93l-.24-.42a2,2,0,0,1,.54-2.7l.09-.07c.53-.44,1-.86,1.5-1.31l.08-.07-.07-.11c-.72-1.2-1.44-2.38-2.17-3.57Z" fill="#dfeaef"></path></g></svg>